<svg version="1.1" id="Layer_1" xmlns="http://www.w3.org/2000/svg" xmlns:xlink="http://www.w3.org/1999/xlink" x="0px" y="0px"
	 width="100%" viewBox="0 0 1024 1024" enable-background="new 0 0 1024 1024" xml:space="preserve">
<path fill="#FFFFFF" opacity="0" stroke="none"
	d="
M485.000000,1025.000000
	C323.737579,1025.000000 162.475174,1025.000000 1.000000,1025.000000
	C1.000000,863.975159 1.000000,702.950256 1.343674,541.708130
	C4.080198,561.793823 5.543361,582.257507 9.025097,602.371826
	C25.013304,694.737122 64.265213,776.342590 125.221954,847.333923
	C163.944870,892.431274 209.375183,929.653931 261.303345,958.845093
	C326.214142,995.334473 395.719086,1016.764954 469.885468,1023.185974
	C474.938110,1023.623352 479.962494,1024.387695 485.000000,1025.000000
z"/>
<path fill="#FFFFFF" opacity="0" stroke="none"
	d="
M1025.000000,539.000000
	C1025.000000,700.929260 1025.000000,862.858459 1025.000000,1025.000000
	C862.641846,1025.000000 700.283569,1025.000000 537.761353,1024.710938
	C551.692871,1023.214905 565.863098,1022.567383 579.870117,1020.697388
	C624.603638,1014.725525 667.964783,1003.389648 709.619812,985.877991
	C790.813354,951.744629 858.926270,900.201111 913.879211,831.427917
	C945.895264,791.360107 971.342468,747.398743 989.976685,699.547485
	C1008.030640,653.186218 1019.260376,605.266846 1023.169067,555.645020
	C1023.607178,550.083130 1024.381592,544.547729 1025.000000,539.000000
z"/>
<path fill="#FFFFFF" opacity="0" stroke="none"
	d="
M0.999999,485.000000
	C1.000000,323.737579 1.000000,162.475128 1.000000,1.000000
	C162.024841,1.000000 323.049774,1.000000 484.286530,1.339810
	C473.071533,2.744529 461.626251,3.642704 450.221161,4.904120
	C407.978912,9.576160 367.090302,20.068316 327.640381,35.580853
	C239.166443,70.370697 165.380951,125.218758 107.386826,200.638779
	C46.176338,280.241608 11.292960,370.272308 2.844859,470.440979
	C2.434107,475.311218 1.624088,480.147766 0.999999,485.000000
z"/>
<path fill="#FFFFFF" opacity="0" stroke="none"
	d="
M540.000000,1.000001
	C701.595703,1.000000 863.191406,1.000000 1025.000000,1.000000
	C1025.000000,162.024841 1025.000000,323.049774 1024.657593,484.289185
	C1022.609070,456.733612 1019.029724,429.223328 1012.957886,402.052887
	C993.448730,314.753448 953.711975,237.746552 894.186523,171.148697
	C846.410889,117.696648 789.674683,76.120308 724.255676,46.546429
	C670.867981,22.411533 615.063416,7.607073 556.619629,2.885834
	C551.065247,2.437135 545.539185,1.636987 540.000000,1.000001
z"/>
<path fill="#5573FF" opacity="1.000000" stroke="none"
	d="
M539.531372,1.000001
	C545.539185,1.636987 551.065247,2.437135 556.619629,2.885834
	C615.063416,7.607073 670.867981,22.411533 724.255676,46.546429
	C789.674683,76.120308 846.410889,117.696648 894.186523,171.148697
	C953.711975,237.746552 993.448730,314.753448 1012.957886,402.052887
	C1019.029724,429.223328 1022.609070,456.733612 1024.657593,484.751831
	C1025.000000,502.687561 1025.000000,520.375122 1025.000000,538.531372
	C1024.381592,544.547729 1023.607178,550.083130 1023.169067,555.645020
	C1019.260376,605.266846 1008.030640,653.186218 989.976685,699.547485
	C971.342468,747.398743 945.895264,791.360107 913.879211,831.427917
	C858.926270,900.201111 790.813354,951.744629 709.619812,985.877991
	C667.964783,1003.389648 624.603638,1014.725525 579.870117,1020.697388
	C565.863098,1022.567383 551.692871,1023.214905 537.298706,1024.710938
	C519.979126,1025.000000 502.958221,1025.000000 485.468658,1025.000000
	C479.962494,1024.387695 474.938110,1023.623352 469.885468,1023.185974
	C395.719086,1016.764954 326.214142,995.334473 261.303345,958.845093
	C209.375183,929.653931 163.944870,892.431274 125.221954,847.333923
	C64.265213,776.342590 25.013304,694.737122 9.025097,602.371826
	C5.543361,582.257507 4.080198,561.793823 1.343674,541.245483
	C1.000000,522.645752 1.000000,504.291534 0.999999,485.468658
	C1.624088,480.147766 2.434107,475.311218 2.844859,470.440979
	C11.292960,370.272308 46.176338,280.241608 107.386826,200.638779
	C165.380951,125.218758 239.166443,70.370697 327.640381,35.580853
	C367.090302,20.068316 407.978912,9.576160 450.221161,4.904120
	C461.626251,3.642704 473.071533,2.744529 484.749176,1.339810
	C503.020905,1.000000 521.041809,1.000000 539.531372,1.000001
M822.711121,121.792976
	C751.366089,65.722343 670.863464,31.248613 580.911804,18.701008
	C541.920410,13.262003 502.866211,12.732419 463.787567,16.335163
	C421.849579,20.201511 381.038055,29.681520 341.539795,44.288784
	C250.481934,77.963867 175.196106,133.359543 116.280685,210.469955
	C55.632336,289.848450 22.218897,379.752991 15.154601,479.386780
	C12.922414,510.869171 14.079246,542.275024 17.783920,573.642029
	C22.591707,614.349060 32.525269,653.729797 47.165337,691.954163
	C71.929077,756.610901 108.707802,813.548584 157.322037,862.838318
	C193.734680,899.756958 234.721481,930.527222 280.682495,954.629456
	C343.935669,987.799988 411.213684,1006.553589 482.475769,1010.956665
	C512.965210,1012.840576 543.358826,1011.759338 573.723511,1008.153320
	C611.580383,1003.657532 648.415833,994.970398 684.114441,981.786560
	C770.959473,949.713806 843.834473,897.786377 901.791626,825.598206
	C972.102051,738.023315 1008.294556,637.631775 1011.753418,525.462952
	C1012.792969,491.750610 1010.037720,458.271301 1004.162598,425.027679
	C994.219177,368.763824 974.962524,315.877350 946.777161,266.256531
	C914.968384,210.256439 873.484497,162.475525 822.711121,121.792976
z"/>
<path fill="#FDFEFE" opacity="1.000000" stroke="none"
	d="
M823.004639,121.991409
	C873.484497,162.475525 914.968384,210.256439 946.777161,266.256531
	C974.962524,315.877350 994.219177,368.763824 1004.162598,425.027679
	C1010.037720,458.271301 1012.792969,491.750610 1011.753418,525.462952
	C1008.294556,637.631775 972.102051,738.023315 901.791626,825.598206
	C843.834473,897.786377 770.959473,949.713806 684.114441,981.786560
	C648.415833,994.970398 611.580383,1003.657532 573.723511,1008.153320
	C543.358826,1011.759338 512.965210,1012.840576 482.475769,1010.956665
	C411.213684,1006.553589 343.935669,987.799988 280.682495,954.629456
	C234.721481,930.527222 193.734680,899.756958 157.322037,862.838318
	C108.707802,813.548584 71.929077,756.610901 47.165337,691.954163
	C32.525269,653.729797 22.591707,614.349060 17.783920,573.642029
	C14.079246,542.275024 12.922414,510.869171 15.154601,479.386780
	C22.218897,379.752991 55.632336,289.848450 116.280685,210.469955
	C175.196106,133.359543 250.481934,77.963867 341.539795,44.288784
	C381.038055,29.681520 421.849579,20.201511 463.787567,16.335163
	C502.866211,12.732419 541.920410,13.262003 580.911804,18.701008
	C670.863464,31.248613 751.366089,65.722343 823.004639,121.991409
M665.210449,961.753418
	C674.869385,958.159973 684.666748,954.897278 694.165222,950.920532
	C766.921875,920.459595 828.853760,875.199524 879.138123,814.358582
	C938.433594,742.614563 973.814880,660.454529 985.156677,568.031128
	C992.421875,508.827789 988.443115,450.263855 973.317871,392.651794
	C947.508301,294.343170 895.318909,212.448669 817.442322,147.220917
	C747.706299,88.811501 667.331055,53.854244 577.328064,41.234264
	C536.379272,35.492546 495.321869,35.621555 454.264343,40.856945
	C398.602661,47.954563 345.657288,63.850750 296.010498,90.039375
	C207.128403,136.924591 139.114609,204.878052 92.311890,293.843079
	C65.384521,345.028015 48.952446,399.550415 42.165722,456.944336
	C38.457966,488.300110 38.203815,519.732056 40.833565,551.224365
	C43.600182,584.355652 49.649418,616.850586 59.340569,648.609192
	C80.515411,718.000854 115.842659,779.348816 164.910004,832.800903
	C215.456238,887.864075 275.799316,928.643127 345.414795,955.476929
	C396.312225,975.095703 449.231171,985.205933 503.838928,986.317993
	C558.790649,987.437073 612.314514,979.328247 665.210449,961.753418
z"/>
<path fill="#01BF64" opacity="1.000000" stroke="none"
	d="
M664.830750,961.862549
	C612.314514,979.328247 558.790649,987.437073 503.838928,986.317993
	C449.231171,985.205933 396.312225,975.095703 345.414795,955.476929
	C275.799316,928.643127 215.456238,887.864075 164.910004,832.800903
	C115.842659,779.348816 80.515411,718.000854 59.340569,648.609192
	C49.649418,616.850586 43.600182,584.355652 40.833565,551.224365
	C38.203815,519.732056 38.457966,488.300110 42.165722,456.944336
	C48.952446,399.550415 65.384521,345.028015 92.311890,293.843079
	C139.114609,204.878052 207.128403,136.924591 296.010498,90.039375
	C345.657288,63.850750 398.602661,47.954563 454.264343,40.856945
	C495.321869,35.621555 536.379272,35.492546 577.328064,41.234264
	C667.331055,53.854244 747.706299,88.811501 817.442322,147.220917
	C895.318909,212.448669 947.508301,294.343170 973.317871,392.651794
	C988.443115,450.263855 992.421875,508.827789 985.156677,568.031128
	C973.814880,660.454529 938.433594,742.614563 879.138123,814.358582
	C828.853760,875.199524 766.921875,920.459595 694.165222,950.920532
	C684.666748,954.897278 674.869385,958.159973 664.830750,961.862549
M906.266968,699.951050
	C901.569702,702.403381 896.641724,704.500793 892.219666,707.376343
	C880.171875,715.210632 872.579712,727.069092 864.698547,738.654907
	C861.805603,742.907837 858.846069,747.230042 855.255859,750.868469
	C849.192139,757.013916 841.989746,757.009705 835.787720,751.003845
	C829.136963,744.563477 824.154114,736.742859 824.564148,727.281799
	C825.329041,709.631958 828.135132,692.303772 834.450073,675.576538
	C839.480591,662.251160 843.803711,648.635193 847.876099,634.979797
	C850.601501,625.841187 850.023071,616.379700 846.925964,607.398010
	C839.711670,586.476624 843.735596,566.709839 852.438843,547.354675
	C856.884277,537.468384 856.388855,533.990234 848.259827,526.881409
	C841.499634,520.969543 838.594177,513.817688 840.882385,505.025024
	C842.174866,500.058350 844.025146,495.237061 845.617737,490.348206
	C846.798767,486.722931 848.372559,483.168274 849.054443,479.450623
	C850.196655,473.223511 847.722290,470.437592 841.500916,471.009705
	C836.726868,471.448730 832.037842,472.757599 827.291748,473.567139
	C818.084717,475.137604 809.767395,474.271667 803.660583,465.854797
	C795.787109,455.002960 794.292297,454.916748 783.652893,463.162964
	C783.126160,463.571259 782.589233,463.966644 782.068481,464.382416
	C772.538696,471.990936 761.620544,474.773285 749.725952,472.826996
	C743.401855,471.792236 736.891296,470.399231 733.611938,463.561798
	C729.877197,455.774811 725.546875,448.246521 722.265015,440.280487
	C720.575928,436.180542 720.085815,431.379608 720.035034,426.884399
	C720.001099,423.878174 721.744934,420.866974 722.600891,417.831940
	C723.804077,413.565704 722.215881,410.527679 718.065308,409.236328
	C715.562256,408.457581 712.796448,408.567688 710.224304,407.958862
	C702.039856,406.021362 693.615967,404.665253 685.795898,401.724854
	C675.358704,397.800415 670.769104,391.317078 681.817261,381.645996
	C689.707581,374.739166 694.676880,365.997528 696.472229,355.609192
	C698.359314,344.689911 696.432007,333.857941 684.675232,328.083679
	C682.901062,327.212280 681.296082,325.947449 679.722778,324.723358
	C656.542542,306.688995 658.520630,276.796387 683.883423,262.442993
	C707.516357,249.068558 733.159180,243.836151 760.079224,243.825516
	C773.529297,243.820206 775.333557,245.594025 775.095154,259.050232
	C774.945801,267.475494 778.445740,273.056427 786.470764,275.066956
	C802.696899,279.132233 818.556519,277.095428 833.625854,270.121033
	C840.193054,267.081635 843.506165,259.810211 842.646118,253.108002
	C840.507446,236.442017 827.475220,225.616531 810.757080,226.790619
	C799.251160,227.598663 787.812134,227.747833 776.489258,225.037674
	C766.533020,222.654633 760.437073,216.632355 758.915527,206.409256
	C758.108459,200.986359 757.920837,195.463974 756.968445,190.072189
	C756.129578,185.322830 752.881714,183.303177 748.168640,184.273270
	C745.761597,184.768692 743.310120,185.611588 741.187500,186.833664
	C727.369934,194.788879 718.613831,206.269165 717.124451,222.537491
	C716.578674,228.499496 714.216553,233.463165 709.579102,237.201874
	C698.270813,246.318665 685.605164,248.360474 672.066711,243.421906
	C659.876770,238.975220 656.956726,232.917084 660.574646,220.624878
	C663.260193,211.500702 663.795349,202.317688 662.229980,192.971207
	C661.164673,186.610229 657.307739,182.878159 651.117554,181.772552
	C647.034790,181.043304 642.834229,181.002792 638.709656,180.472717
	C629.686890,179.313110 623.647827,171.574631 624.546082,162.476471
	C625.094177,156.924011 628.219116,154.396530 633.736389,155.501862
	C638.619629,156.480179 643.373352,158.114380 648.262146,159.053574
	C656.925049,160.717819 661.293152,156.671722 659.583130,147.969681
	C653.388062,116.444916 635.795837,94.274384 604.467407,85.195450
	C583.487305,79.115417 561.664307,77.020103 539.830811,76.007423
	C534.064270,75.739960 528.274719,75.967056 522.085876,75.967056
	C521.400452,80.611649 520.557861,85.511353 519.971313,90.441513
	C517.892761,107.915642 506.941620,121.647675 492.167114,125.161789
	C485.610046,126.721382 482.270111,124.776924 481.040802,118.161659
	C479.665619,110.761581 476.562134,104.247108 471.799561,98.515823
	C467.400604,93.222038 462.250275,92.153023 456.242523,95.434669
	C453.641418,96.855484 451.367706,98.884750 448.977112,100.680054
	C442.060730,105.874260 435.352203,111.371864 428.207886,116.229492
	C418.122101,123.087112 406.942810,127.191528 394.601562,127.524254
	C386.133209,127.752556 377.620850,127.380531 369.199463,128.105286
	C352.138641,129.573578 337.527008,136.772141 325.517090,148.911270
	C318.584869,155.918076 319.002716,163.243546 326.930176,168.821564
	C337.654816,176.367752 349.736633,179.492966 362.893311,177.428360
	C368.944824,176.478729 372.725067,173.273102 373.901031,166.934067
	C375.376221,158.981720 380.154907,152.998993 386.670807,148.537491
	C402.640656,137.602783 419.576263,136.550674 436.788910,145.039078
	C450.240723,151.672821 459.416595,162.385056 463.462158,177.011719
	C465.063873,182.802628 462.889130,185.478638 456.820526,185.866119
	C454.678375,186.002914 452.441803,185.968033 450.360291,185.506500
	C443.552612,183.997162 436.745422,182.437576 430.033569,180.556488
	C421.723358,178.227493 416.246704,180.216599 411.776184,187.540680
	C408.300507,193.234833 407.773834,199.306046 408.600494,205.813187
	C409.780518,215.101898 405.837708,219.973526 396.530945,220.092834
	C371.524750,220.413467 350.276398,228.768600 334.150421,248.395554
	C324.699402,259.898315 314.947479,271.683258 314.679993,287.380707
	C314.506958,297.536316 316.705536,307.759064 318.170837,317.904144
	C318.864685,322.708130 317.866119,324.465668 313.048981,324.282654
	C311.085419,324.208069 309.030975,323.881348 307.208832,323.176025
	C298.201355,319.689362 290.973755,314.241150 287.169617,304.917847
	C283.487854,295.894348 277.027069,289.340912 268.201660,285.295715
	C263.045410,282.932281 259.985077,283.927582 257.556732,289.039795
	C254.424133,295.634491 251.410995,302.347290 249.125565,309.266571
	C246.600296,316.911896 242.375534,322.948120 235.569611,327.133362
	C226.960220,332.427673 222.862625,340.592834 221.198135,350.091492
	C219.022736,362.505859 223.607513,369.534851 235.760315,373.272858
	C236.395828,373.468353 237.013412,373.722443 237.649841,373.914398
	C244.469070,375.971069 249.231522,380.041016 251.396530,387.085114
	C254.423706,396.934204 258.198578,406.575867 260.785431,416.531891
	C263.621399,427.446777 270.698395,434.382385 280.007843,439.518829
	C286.864502,443.301910 294.176758,444.408539 301.611053,441.071686
	C306.455688,438.897217 311.339661,436.736053 315.932251,434.093170
	C321.795013,430.719452 327.060974,430.772461 332.476868,435.013031
	C337.035492,438.582397 342.357147,439.927582 348.000610,438.102417
	C352.885529,436.522522 357.646332,434.547394 362.426178,432.656403
	C377.601166,426.652893 393.129852,423.668304 409.270172,427.919861
	C417.200836,430.008881 423.617310,434.069397 425.130280,443.183655
	C425.440826,445.054352 426.395630,447.224609 427.774750,448.434814
	C431.838104,452.000549 436.030334,455.525543 440.596924,458.389069
	C449.457916,463.945587 458.848358,468.677368 467.564789,474.438660
	C474.664429,479.131195 475.317474,484.164093 471.194580,491.617157
	C470.550537,492.781403 469.858276,493.918945 469.192474,495.071228
	C465.008423,502.312439 465.854248,507.718109 472.289551,513.141541
	C474.434204,514.948975 476.853302,516.500671 479.326721,517.836304
	C492.127625,524.748901 505.796387,527.338867 520.295593,526.108521
	C548.205688,523.740173 577.156555,544.459534 585.481934,573.489929
	C589.149536,586.278809 590.076782,599.216431 580.412964,609.848938
	C570.624146,620.618896 566.516296,632.853882 568.280579,646.972534
	C571.166138,670.063599 561.979736,688.062744 545.812256,703.538757
	C536.862427,712.105835 526.088928,717.559326 515.148682,722.895081
	C505.621185,727.541626 500.149384,735.195984 498.862488,745.821899
	C497.165375,759.834839 492.172302,772.433350 483.329376,783.618164
	C474.249054,795.103333 468.323090,808.088440 464.824951,822.463135
	C459.908142,842.667725 453.640167,862.527405 443.138031,880.686462
	C436.849365,891.560120 427.862152,893.534424 416.876129,887.602112
	C406.514069,882.006836 404.236267,872.425232 403.111664,862.046204
	C399.944550,832.816040 392.270935,804.946655 378.353607,778.897156
	C373.002747,768.881836 372.395050,758.245972 373.406311,746.923645
	C375.121063,727.723816 376.180695,708.395935 376.090637,689.128601
	C376.028595,675.858948 371.156036,671.152710 357.944794,668.841431
	C342.358826,666.114685 333.276031,656.931335 330.157166,641.982849
	C327.243774,628.019287 324.919800,613.905090 323.030701,599.764465
	C321.586914,588.957336 318.093109,584.128723 307.085724,581.730530
	C297.076569,579.549866 289.333740,574.022644 285.590912,564.814148
	C282.332062,556.796326 279.955963,548.015869 279.359070,539.421692
	C278.605286,528.569275 283.664948,519.793762 294.085876,514.918518
	C295.889954,514.074524 297.584686,512.998535 299.339447,512.047180
	C310.457581,506.019684 315.712677,494.647278 313.237457,482.211487
	C311.848236,475.231903 308.209625,470.855652 301.031647,468.720123
	C281.604065,462.940216 265.238251,452.139343 251.735397,437.000244
	C244.574341,428.971466 236.538254,422.059662 226.446716,417.912811
	C212.487000,412.176453 202.731339,402.027527 196.590240,388.524445
	C192.884735,380.376770 189.783020,371.908173 187.031403,363.383209
	C182.113434,348.146667 183.338440,332.837341 187.463684,317.596344
	C188.284576,314.563538 188.631714,311.402496 189.197281,308.300598
	C188.731613,308.054718 188.265961,307.808838 187.800293,307.562958
	C186.184662,308.538361 184.016678,309.139648 183.055649,310.558441
	C180.022598,315.036255 177.500656,319.856476 174.667892,324.474884
	C172.279877,328.368164 170.294922,332.732422 167.122299,335.866577
	C162.729584,340.206055 159.100449,338.834198 157.389755,332.770020
	C156.584198,329.914459 156.199524,326.892944 155.999878,323.921387
	C154.632553,303.568787 160.992798,285.260712 170.768936,267.792206
	C172.760590,264.233398 174.255661,260.223145 175.084869,256.234985
	C175.951309,252.067749 173.185944,249.477859 169.445847,247.916824
	C165.636536,246.326874 164.891556,249.802612 163.504623,251.680695
	C116.510353,315.318298 88.315231,386.325226 79.777328,465.084839
	C74.318558,515.440369 77.431183,565.269409 89.538116,614.373962
	C111.505829,703.472656 157.391724,778.293030 225.925018,839.184875
	C266.681641,875.397095 312.817047,902.903503 363.953705,921.712036
	C426.198395,944.606323 490.456116,952.465942 556.499390,946.142334
	C593.821899,942.568665 630.127380,934.484314 665.128723,921.213928
	C768.351318,882.078186 846.105896,813.550537 899.166138,716.882751
	C902.151123,711.444519 904.365967,705.583618 907.284180,700.118286
	C907.345398,699.908813 907.406616,699.699341 907.467773,699.489868
	C907.316467,699.668884 907.165100,699.847900 906.266968,699.951050
z"/>
<path fill="#FFFFFF" opacity="1.000000" stroke="none"
	d="
M906.939209,699.919434
	C904.365967,705.583618 902.151123,711.444519 899.166138,716.882751
	C846.105896,813.550537 768.351318,882.078186 665.128723,921.213928
	C630.127380,934.484314 593.821899,942.568665 556.499390,946.142334
	C490.456116,952.465942 426.198395,944.606323 363.953705,921.712036
	C312.817047,902.903503 266.681641,875.397095 225.925018,839.184875
	C157.391724,778.293030 111.505829,703.472656 89.538116,614.373962
	C77.431183,565.269409 74.318558,515.440369 79.777328,465.084839
	C88.315231,386.325226 116.510353,315.318298 163.504623,251.680695
	C164.891556,249.802612 165.636536,246.326874 169.445847,247.916824
	C173.185944,249.477859 175.951309,252.067749 175.084869,256.234985
	C174.255661,260.223145 172.760590,264.233398 170.768936,267.792206
	C160.992798,285.260712 154.632553,303.568787 155.999878,323.921387
	C156.199524,326.892944 156.584198,329.914459 157.389755,332.770020
	C159.100449,338.834198 162.729584,340.206055 167.122299,335.866577
	C170.294922,332.732422 172.279877,328.368164 174.667892,324.474884
	C177.500656,319.856476 180.022598,315.036255 183.055649,310.558441
	C184.016678,309.139648 186.184662,308.538361 187.800293,307.562958
	C188.265961,307.808838 188.731613,308.054718 189.197281,308.300598
	C188.631714,311.402496 188.284576,314.563538 187.463684,317.596344
	C183.338440,332.837341 182.113434,348.146667 187.031403,363.383209
	C189.783020,371.908173 192.884735,380.376770 196.590240,388.524445
	C202.731339,402.027527 212.487000,412.176453 226.446716,417.912811
	C236.538254,422.059662 244.574341,428.971466 251.735397,437.000244
	C265.238251,452.139343 281.604065,462.940216 301.031647,468.720123
	C308.209625,470.855652 311.848236,475.231903 313.237457,482.211487
	C315.712677,494.647278 310.457581,506.019684 299.339447,512.047180
	C297.584686,512.998535 295.889954,514.074524 294.085876,514.918518
	C283.664948,519.793762 278.605286,528.569275 279.359070,539.421692
	C279.955963,548.015869 282.332062,556.796326 285.590912,564.814148
	C289.333740,574.022644 297.076569,579.549866 307.085724,581.730530
	C318.093109,584.128723 321.586914,588.957336 323.030701,599.764465
	C324.919800,613.905090 327.243774,628.019287 330.157166,641.982849
	C333.276031,656.931335 342.358826,666.114685 357.944794,668.841431
	C371.156036,671.152710 376.028595,675.858948 376.090637,689.128601
	C376.180695,708.395935 375.121063,727.723816 373.406311,746.923645
	C372.395050,758.245972 373.002747,768.881836 378.353607,778.897156
	C392.270935,804.946655 399.944550,832.816040 403.111664,862.046204
	C404.236267,872.425232 406.514069,882.006836 416.876129,887.602112
	C427.862152,893.534424 436.849365,891.560120 443.138031,880.686462
	C453.640167,862.527405 459.908142,842.667725 464.824951,822.463135
	C468.323090,808.088440 474.249054,795.103333 483.329376,783.618164
	C492.172302,772.433350 497.165375,759.834839 498.862488,745.821899
	C500.149384,735.195984 505.621185,727.541626 515.148682,722.895081
	C526.088928,717.559326 536.862427,712.105835 545.812256,703.538757
	C561.979736,688.062744 571.166138,670.063599 568.280579,646.972534
	C566.516296,632.853882 570.624146,620.618896 580.412964,609.848938
	C590.076782,599.216431 589.149536,586.278809 585.481934,573.489929
	C577.156555,544.459534 548.205688,523.740173 520.295593,526.108521
	C505.796387,527.338867 492.127625,524.748901 479.326721,517.836304
	C476.853302,516.500671 474.434204,514.948975 472.289551,513.141541
	C465.854248,507.718109 465.008423,502.312439 469.192474,495.071228
	C469.858276,493.918945 470.550537,492.781403 471.194580,491.617157
	C475.317474,484.164093 474.664429,479.131195 467.564789,474.438660
	C458.848358,468.677368 449.457916,463.945587 440.596924,458.389069
	C436.030334,455.525543 431.838104,452.000549 427.774750,448.434814
	C426.395630,447.224609 425.440826,445.054352 425.130280,443.183655
	C423.617310,434.069397 417.200836,430.008881 409.270172,427.919861
	C393.129852,423.668304 377.601166,426.652893 362.426178,432.656403
	C357.646332,434.547394 352.885529,436.522522 348.000610,438.102417
	C342.357147,439.927582 337.035492,438.582397 332.476868,435.013031
	C327.060974,430.772461 321.795013,430.719452 315.932251,434.093170
	C311.339661,436.736053 306.455688,438.897217 301.611053,441.071686
	C294.176758,444.408539 286.864502,443.301910 280.007843,439.518829
	C270.698395,434.382385 263.621399,427.446777 260.785431,416.531891
	C258.198578,406.575867 254.423706,396.934204 251.396530,387.085114
	C249.231522,380.041016 244.469070,375.971069 237.649841,373.914398
	C237.013412,373.722443 236.395828,373.468353 235.760315,373.272858
	C223.607513,369.534851 219.022736,362.505859 221.198135,350.091492
	C222.862625,340.592834 226.960220,332.427673 235.569611,327.133362
	C242.375534,322.948120 246.600296,316.911896 249.125565,309.266571
	C251.410995,302.347290 254.424133,295.634491 257.556732,289.039795
	C259.985077,283.927582 263.045410,282.932281 268.201660,285.295715
	C277.027069,289.340912 283.487854,295.894348 287.169617,304.917847
	C290.973755,314.241150 298.201355,319.689362 307.208832,323.176025
	C309.030975,323.881348 311.085419,324.208069 313.048981,324.282654
	C317.866119,324.465668 318.864685,322.708130 318.170837,317.904144
	C316.705536,307.759064 314.506958,297.536316 314.679993,287.380707
	C314.947479,271.683258 324.699402,259.898315 334.150421,248.395554
	C350.276398,228.768600 371.524750,220.413467 396.530945,220.092834
	C405.837708,219.973526 409.780518,215.101898 408.600494,205.813187
	C407.773834,199.306046 408.300507,193.234833 411.776184,187.540680
	C416.246704,180.216599 421.723358,178.227493 430.033569,180.556488
	C436.745422,182.437576 443.552612,183.997162 450.360291,185.506500
	C452.441803,185.968033 454.678375,186.002914 456.820526,185.866119
	C462.889130,185.478638 465.063873,182.802628 463.462158,177.011719
	C459.416595,162.385056 450.240723,151.672821 436.788910,145.039078
	C419.576263,136.550674 402.640656,137.602783 386.670807,148.537491
	C380.154907,152.998993 375.376221,158.981720 373.901031,166.934067
	C372.725067,173.273102 368.944824,176.478729 362.893311,177.428360
	C349.736633,179.492966 337.654816,176.367752 326.930176,168.821564
	C319.002716,163.243546 318.584869,155.918076 325.517090,148.911270
	C337.527008,136.772141 352.138641,129.573578 369.199463,128.105286
	C377.620850,127.380531 386.133209,127.752556 394.601562,127.524254
	C406.942810,127.191528 418.122101,123.087112 428.207886,116.229492
	C435.352203,111.371864 442.060730,105.874260 448.977112,100.680054
	C451.367706,98.884750 453.641418,96.855484 456.242523,95.434669
	C462.250275,92.153023 467.400604,93.222038 471.799561,98.515823
	C476.562134,104.247108 479.665619,110.761581 481.040802,118.161659
	C482.270111,124.776924 485.610046,126.721382 492.167114,125.161789
	C506.941620,121.647675 517.892761,107.915642 519.971313,90.441513
	C520.557861,85.511353 521.400452,80.611649 522.085876,75.967056
	C528.274719,75.967056 534.064270,75.739960 539.830811,76.007423
	C561.664307,77.020103 583.487305,79.115417 604.467407,85.195450
	C635.795837,94.274384 653.388062,116.444916 659.583130,147.969681
	C661.293152,156.671722 656.925049,160.717819 648.262146,159.053574
	C643.373352,158.114380 638.619629,156.480179 633.736389,155.501862
	C628.219116,154.396530 625.094177,156.924011 624.546082,162.476471
	C623.647827,171.574631 629.686890,179.313110 638.709656,180.472717
	C642.834229,181.002792 647.034790,181.043304 651.117554,181.772552
	C657.307739,182.878159 661.164673,186.610229 662.229980,192.971207
	C663.795349,202.317688 663.260193,211.500702 660.574646,220.624878
	C656.956726,232.917084 659.876770,238.975220 672.066711,243.421906
	C685.605164,248.360474 698.270813,246.318665 709.579102,237.201874
	C714.216553,233.463165 716.578674,228.499496 717.124451,222.537491
	C718.613831,206.269165 727.369934,194.788879 741.187500,186.833664
	C743.310120,185.611588 745.761597,184.768692 748.168640,184.273270
	C752.881714,183.303177 756.129578,185.322830 756.968445,190.072189
	C757.920837,195.463974 758.108459,200.986359 758.915527,206.409256
	C760.437073,216.632355 766.533020,222.654633 776.489258,225.037674
	C787.812134,227.747833 799.251160,227.598663 810.757080,226.790619
	C827.475220,225.616531 840.507446,236.442017 842.646118,253.108002
	C843.506165,259.810211 840.193054,267.081635 833.625854,270.121033
	C818.556519,277.095428 802.696899,279.132233 786.470764,275.066956
	C778.445740,273.056427 774.945801,267.475494 775.095154,259.050232
	C775.333557,245.594025 773.529297,243.820206 760.079224,243.825516
	C733.159180,243.836151 707.516357,249.068558 683.883423,262.442993
	C658.520630,276.796387 656.542542,306.688995 679.722778,324.723358
	C681.296082,325.947449 682.901062,327.212280 684.675232,328.083679
	C696.432007,333.857941 698.359314,344.689911 696.472229,355.609192
	C694.676880,365.997528 689.707581,374.739166 681.817261,381.645996
	C670.769104,391.317078 675.358704,397.800415 685.795898,401.724854
	C693.615967,404.665253 702.039856,406.021362 710.224304,407.958862
	C712.796448,408.567688 715.562256,408.457581 718.065308,409.236328
	C722.215881,410.527679 723.804077,413.565704 722.600891,417.831940
	C721.744934,420.866974 720.001099,423.878174 720.035034,426.884399
	C720.085815,431.379608 720.575928,436.180542 722.265015,440.280487
	C725.546875,448.246521 729.877197,455.774811 733.611938,463.561798
	C736.891296,470.399231 743.401855,471.792236 749.725952,472.826996
	C761.620544,474.773285 772.538696,471.990936 782.068481,464.382416
	C782.589233,463.966644 783.126160,463.571259 783.652893,463.162964
	C794.292297,454.916748 795.787109,455.002960 803.660583,465.854797
	C809.767395,474.271667 818.084717,475.137604 827.291748,473.567139
	C832.037842,472.757599 836.726868,471.448730 841.500916,471.009705
	C847.722290,470.437592 850.196655,473.223511 849.054443,479.450623
	C848.372559,483.168274 846.798767,486.722931 845.617737,490.348206
	C844.025146,495.237061 842.174866,500.058350 840.882385,505.025024
	C838.594177,513.817688 841.499634,520.969543 848.259827,526.881409
	C856.388855,533.990234 856.884277,537.468384 852.438843,547.354675
	C843.735596,566.709839 839.711670,586.476624 846.925964,607.398010
	C850.023071,616.379700 850.601501,625.841187 847.876099,634.979797
	C843.803711,648.635193 839.480591,662.251160 834.450073,675.576538
	C828.135132,692.303772 825.329041,709.631958 824.564148,727.281799
	C824.154114,736.742859 829.136963,744.563477 835.787720,751.003845
	C841.989746,757.009705 849.192139,757.013916 855.255859,750.868469
	C858.846069,747.230042 861.805603,742.907837 864.698547,738.654907
	C872.579712,727.069092 880.171875,715.210632 892.219666,707.376343
	C896.641724,704.500793 901.569702,702.403381 906.621582,699.962280
	C906.976135,699.973450 906.939209,699.919434 906.939209,699.919434
z"/>
<path fill="#FFFFFF" opacity="1.000000" stroke="none"
	d="
M906.994995,700.000183
	C907.165100,699.847900 907.316467,699.668884 907.467773,699.489868
	C907.406616,699.699341 907.345398,699.908813 907.111694,700.018860
	C906.939209,699.919434 906.976135,699.973450 906.994995,700.000183
z"/>
</svg>
